<?xml version="1.0" encoding="utf-8"?>
<!-- Generator: Adobe Illustrator 24.2.1, SVG Export Plug-In . SVG Version: 6.00 Build 0)  -->
<svg version="1.1" id="Laag_1" xmlns="http://www.w3.org/2000/svg" xmlns:xlink="http://www.w3.org/1999/xlink" x="0px" y="0px"
	 viewBox="0 0 242 108.4" style="enable-background:new 0 0 242 108.4;" xml:space="preserve">
<style type="text/css">
	.st0{fill:none;stroke:#d5d5d5;stroke-width:20;stroke-linecap:round;stroke-miterlimit:10;}
	.st1{fill:#d5d5d5;}
</style>
<g>
	<g>
		<path class="st0" d="M102.5,11.2H69.7c-25.1,0-45.5,19.3-45.5,43s20.4,43,45.5,43h32.8"/>
		<path class="st0" d="M139.6,97.2h32.8c25.1,0,45.5-19.3,45.5-43s-20.4-43-45.5-43h-32.8"/>
	</g>
	<g>
		<path class="st1" d="M75.7,52.1c-0.3-1.5-1.3-2.2-2.8-2.2c-1,0-1.7,0.4-2.3,1.2c-0.6,0.8-0.9,1.9-0.9,3.3c0,1.3,0.3,2.4,0.8,3.2
			c0.6,0.8,1.3,1.2,2.3,1.2c1.5,0,2.5-0.8,2.8-2.4h2.7c-0.2,1.3-0.8,2.4-1.7,3.3c-1,0.9-2.2,1.4-3.8,1.4c-1.8,0-3.2-0.6-4.2-1.8
			c-1.1-1.2-1.6-2.8-1.6-4.9c0-2,0.5-3.6,1.6-4.9c1-1.2,2.5-1.8,4.3-1.8c1.6,0,2.9,0.4,3.8,1.3c1,0.9,1.5,1.9,1.6,3.2H75.7z"/>
		<path class="st1" d="M79.7,54.3c0-2.2,0.6-3.8,1.7-5c1.1-1.1,2.6-1.7,4.4-1.7c1.8,0,3.3,0.6,4.4,1.7c1.2,1.1,1.7,2.8,1.7,5
			c0,2.2-0.6,3.8-1.7,5c-1.1,1.2-2.6,1.7-4.4,1.7c-1.7,0-3.2-0.5-4.4-1.6C80.3,58.3,79.7,56.6,79.7,54.3z M82.4,54.3
			c0,1.5,0.3,2.6,1,3.3c0.7,0.7,1.5,1.1,2.5,1.1s1.8-0.4,2.5-1.2c0.6-0.8,1-1.9,1-3.3c0-1.4-0.3-2.5-0.9-3.3s-1.5-1.2-2.5-1.2
			c-1,0-1.9,0.4-2.5,1.1C82.7,51.8,82.4,52.9,82.4,54.3z"/>
		<path class="st1" d="M101.9,47.9h2.5v12.7h-2.7l-5.2-9.1h0v9.1H94V47.9h2.8l5.1,8.9h0V47.9z"/>
		<path class="st1" d="M114.9,47.9h2.5v12.7h-2.7l-5.2-9.1h0v9.1H107V47.9h2.8l5.1,8.9h0V47.9z"/>
		<path class="st1" d="M129.3,50.2h-6.8v2.7h6.2v2.3h-6.2v3.3h7.1v2.3h-9.7V47.9h9.4V50.2z"/>
		<path class="st1" d="M139.7,52.1c-0.3-1.5-1.3-2.2-2.8-2.2c-1,0-1.7,0.4-2.3,1.2s-0.9,1.9-0.9,3.3c0,1.3,0.3,2.4,0.8,3.2
			c0.6,0.8,1.3,1.2,2.3,1.2c1.5,0,2.5-0.8,2.8-2.4h2.7c-0.2,1.3-0.8,2.4-1.7,3.3c-1,0.9-2.2,1.4-3.8,1.4c-1.8,0-3.2-0.6-4.2-1.8
			c-1-1.2-1.6-2.8-1.6-4.9c0-2,0.5-3.6,1.6-4.9c1-1.2,2.5-1.8,4.3-1.8c1.6,0,2.9,0.4,3.8,1.3c1,0.9,1.5,1.9,1.6,3.2H139.7z"/>
		<path class="st1" d="M149.4,60.7h-2.7V50.2h-3.8v-2.3h10.4v2.3h-3.9V60.7z"/>
		<path class="st1" d="M164.2,50.2h-6.8v2.7h6.2v2.3h-6.2v3.3h7.1v2.3h-9.7V47.9h9.4V50.2z"/>
		<path class="st1" d="M166.6,47.9h5.6c1.7,0,3,0.6,3.9,1.7c0.9,1.1,1.3,2.6,1.3,4.4c0,2-0.5,3.6-1.4,4.8c-0.9,1.2-2.2,1.8-3.9,1.8
			h-5.5V47.9z M169.2,58.5h2.6c0.9,0,1.6-0.4,2.1-1.1c0.5-0.8,0.8-1.8,0.8-3.1c0-1.4-0.2-2.4-0.7-3.1c-0.5-0.7-1.2-1-2.1-1h-2.6
			V58.5z"/>
	</g>
</g>
</svg>
